<?xml version="1.0" standalone="no"?>
<!DOCTYPE svg PUBLIC "-//W3C//DTD SVG 20010904//EN"
 "http://www.w3.org/TR/2001/REC-SVG-20010904/DTD/svg10.dtd">
<svg version="1.0" xmlns="http://www.w3.org/2000/svg"
 width="512.000000pt" height="512.000000pt" viewBox="0 0 512.000000 512.000000"
 preserveAspectRatio="xMidYMid meet">
<metadata>
Created by potrace 1.16, written by Peter Selinger 2001-2019
</metadata>
<g transform="translate(0.000000,512.000000) scale(0.100000,-0.100000)"
fill="#000000" stroke="none">
<path d="M0 2560 l0 -2560 2560 0 2560 0 0 2560 0 2560 -2560 0 -2560 0 0
-2560z m2663 1714 c180 -91 320 -197 497 -380 131 -135 184 -201 274 -343 195
-308 248 -629 151 -918 -20 -59 -71 -170 -119 -260 -124 -229 -166 -367 -166
-546 0 -197 86 -403 224 -537 44 -42 55 -70 38 -97 -8 -13 -92 -52 -627 -290
-267 -119 -377 -163 -395 -159 -38 7 -974 436 -982 449 -17 27 -4 54 60 121
80 86 125 160 165 269 25 69 30 102 34 208 9 203 -29 337 -166 588 -95 174
-136 284 -158 426 -27 177 2 359 87 555 123 284 412 624 685 805 87 58 270
155 292 155 7 0 55 -21 106 -46z"/>
<path d="M2469 4152 c-204 -115 -390 -273 -540 -458 -243 -300 -352 -590 -320
-852 16 -130 53 -234 144 -400 148 -270 182 -385 182 -612 0 -131 -4 -167 -23
-233 -34 -120 -108 -257 -177 -330 l-26 -27 23 -9 c13 -5 201 -90 419 -190
219 -99 402 -181 407 -181 6 0 66 25 134 56 248 113 654 296 686 309 l33 14
-49 61 c-60 74 -123 200 -154 305 -19 68 -23 103 -22 230 0 223 32 329 181
607 95 176 126 262 142 394 34 280 -96 596 -378 918 -136 155 -330 313 -489
399 l-88 46 -85 -47z"/>
</g>
</svg>
